<svg width="40" height="40" viewBox="0 0 40 40" fill="none" xmlns="http://www.w3.org/2000/svg">
  <path d="M20 3C10.6112 3 3 10.6112 3 20C3 29.3888 10.6112 37 20 37C29.3888 37 37 29.3888 37 20C37 10.6112 29.3888 3 20 3Z" fill="#E6F4EA"/>
  <path d="M20 6C12.268 6 6 12.268 6 20C6 27.732 12.268 34 20 34C27.732 34 34 27.732 34 20C34 12.268 27.732 6 20 6Z" fill="#34A853"/>
  <path d="M20 9C13.9249 9 9 13.9249 9 20C9 26.0751 13.9249 31 20 31C26.0751 31 31 26.0751 31 20C31 13.9249 26.0751 9 20 9Z" fill="#4CAF50"/>
  <path d="M20 12C15.5817 12 12 15.5817 12 20C12 24.4183 15.5817 28 20 28C24.4183 28 28 24.4183 28 20C28 15.5817 24.4183 12 20 12Z" fill="#66BB6A"/>
  <path d="M20 15C17.2386 15 15 17.2386 15 20C15 22.7614 17.2386 25 20 25C22.7614 25 25 22.7614 25 20C25 17.2386 22.7614 15 20 15Z" fill="#81C784"/>
  <path d="M20 18C18.8954 18 18 18.8954 18 20C18 21.1046 18.8954 22 20 22C21.1046 22 22 21.1046 22 20C22 18.8954 21.1046 18 20 18Z" fill="#A5D6A7"/>
  <path d="M27 13C27 13 24.5 15.5 20 15.5C15.5 15.5 13 13 13 13C13 13 15.5 10.5 20 10.5C24.5 10.5 27 13 27 13Z" fill="#1B5E20"/>
  <path d="M20 10.5C24.5 10.5 27 13 27 13L20 20L13 13C13 13 15.5 10.5 20 10.5Z" fill="#2E7D32"/>
</svg>

